<?xml version="1.0" encoding="utf-8" standalone="no"?>
<!DOCTYPE svg PUBLIC "-//W3C//DTD SVG 1.1//EN"
  "http://www.w3.org/Graphics/SVG/1.1/DTD/svg11.dtd">
<svg height="345.6pt" version="1.1" viewBox="0 0 460.8 345.6" width="460.8pt" xmlns="http://www.w3.org/2000/svg" xmlns:xlink="http://www.w3.org/1999/xlink">
 <metadata>
  <rdf:RDF xmlns:cc="http://creativecommons.org/ns#" xmlns:dc="http://purl.org/dc/elements/1.1/" xmlns:rdf="http://www.w3.org/1999/02/22-rdf-syntax-ns#">
   <cc:Work>
    <dc:type rdf:resource="http://purl.org/dc/dcmitype/StillImage"/>
    <dc:date>2022-05-14T22:13:59.939823</dc:date>
    <dc:format>image/svg+xml</dc:format>
    <dc:creator>
     <cc:Agent>
      <dc:title>Matplotlib v3.4.3, https://matplotlib.org/</dc:title>
     </cc:Agent>
    </dc:creator>
   </cc:Work>
  </rdf:RDF>
 </metadata>
 <defs>
  <style type="text/css">*{stroke-linecap:butt;stroke-linejoin:round;}</style>
 </defs>
 <g id="figure_1">
  <g id="patch_1">
   <path d="M 0 345.6 
L 460.8 345.6 
L 460.8 0 
L 0 0 
z
" style="fill:#ffffff;"/>
  </g>
  <g id="axes_1">
   <g id="patch_2">
    <path d="M 57.6 307.584 
L 414.72 307.584 
L 414.72 41.472 
L 57.6 41.472 
z
" style="fill:#ffffff;"/>
   </g>
   <g id="patch_3">
    <path clip-path="url(#p3f0194f021)" d="M 57.6 295.488 
L 67.339801 295.488 
L 67.339801 292.968 
L 57.6 292.968 
z
" style="fill:#000080;"/>
   </g>
   <g id="patch_4">
    <path clip-path="url(#p3f0194f021)" d="M 57.6 292.968 
L 90.2774 292.968 
L 90.2774 290.448 
L 57.6 290.448 
z
" style="fill:#000080;"/>
   </g>
   <g id="patch_5">
    <path clip-path="url(#p3f0194f021)" d="M 57.6 290.448 
L 100.979053 290.448 
L 100.979053 287.928 
L 57.6 287.928 
z
" style="fill:#000080;"/>
   </g>
   <g id="patch_6">
    <path clip-path="url(#p3f0194f021)" d="M 57.6 287.928 
L 113.937078 287.928 
L 113.937078 285.408 
L 57.6 285.408 
z
" style="fill:#000080;"/>
   </g>
   <g id="patch_7">
    <path clip-path="url(#p3f0194f021)" d="M 57.6 285.408 
L 116.54306 285.408 
L 116.54306 282.888 
L 57.6 282.888 
z
" style="fill:#000080;"/>
   </g>
   <g id="patch_8">
    <path clip-path="url(#p3f0194f021)" d="M 57.6 282.888 
L 120.087152 282.888 
L 120.087152 280.368 
L 57.6 280.368 
z
" style="fill:#000080;"/>
   </g>
   <g id="patch_9">
    <path clip-path="url(#p3f0194f021)" d="M 57.6 280.368 
L 154.912572 280.368 
L 154.912572 277.848 
L 57.6 277.848 
z
" style="fill:#000080;"/>
   </g>
   <g id="patch_10">
    <path clip-path="url(#p3f0194f021)" d="M 57.6 277.848 
L 168.291294 277.848 
L 168.291294 275.328 
L 57.6 275.328 
z
" style="fill:#000080;"/>
   </g>
   <g id="patch_11">
    <path clip-path="url(#p3f0194f021)" d="M 57.6 275.328 
L 173.605792 275.328 
L 173.605792 272.808 
L 57.6 272.808 
z
" style="fill:#000080;"/>
   </g>
   <g id="patch_12">
    <path clip-path="url(#p3f0194f021)" d="M 57.6 272.808 
L 187.348104 272.808 
L 187.348104 270.288 
L 57.6 270.288 
z
" style="fill:#000080;"/>
   </g>
   <g id="patch_13">
    <path clip-path="url(#p3f0194f021)" d="M 57.6 270.288 
L 209.448125 270.288 
L 209.448125 267.768 
L 57.6 267.768 
z
" style="fill:#000080;"/>
   </g>
   <g id="patch_14">
    <path clip-path="url(#p3f0194f021)" d="M 57.6 267.768 
L 215.804579 267.768 
L 215.804579 265.248 
L 57.6 265.248 
z
" style="fill:#000080;"/>
   </g>
   <g id="patch_15">
    <path clip-path="url(#p3f0194f021)" d="M 57.6 265.248 
L 221.939143 265.248 
L 221.939143 262.728 
L 57.6 262.728 
z
" style="fill:#000080;"/>
   </g>
   <g id="patch_16">
    <path clip-path="url(#p3f0194f021)" d="M 57.6 262.728 
L 223.839865 262.728 
L 223.839865 260.208 
L 57.6 260.208 
z
" style="fill:#000080;"/>
   </g>
   <g id="patch_17">
    <path clip-path="url(#p3f0194f021)" d="M 57.6 260.208 
L 225.655771 260.208 
L 225.655771 257.688 
L 57.6 257.688 
z
" style="fill:#000080;"/>
   </g>
   <g id="patch_18">
    <path clip-path="url(#p3f0194f021)" d="M 57.6 257.688 
L 231.034879 257.688 
L 231.034879 255.168 
L 57.6 255.168 
z
" style="fill:#000080;"/>
   </g>
   <g id="patch_19">
    <path clip-path="url(#p3f0194f021)" d="M 57.6 255.168 
L 232.033303 255.168 
L 232.033303 252.648 
L 57.6 252.648 
z
" style="fill:#000080;"/>
   </g>
   <g id="patch_20">
    <path clip-path="url(#p3f0194f021)" d="M 57.6 252.648 
L 232.352644 252.648 
L 232.352644 250.128 
L 57.6 250.128 
z
" style="fill:#000080;"/>
   </g>
   <g id="patch_21">
    <path clip-path="url(#p3f0194f021)" d="M 57.6 250.128 
L 237.240708 250.128 
L 237.240708 247.608 
L 57.6 247.608 
z
" style="fill:#000080;"/>
   </g>
   <g id="patch_22">
    <path clip-path="url(#p3f0194f021)" d="M 57.6 247.608 
L 238.896729 247.608 
L 238.896729 245.088 
L 57.6 245.088 
z
" style="fill:#000080;"/>
   </g>
   <g id="patch_23">
    <path clip-path="url(#p3f0194f021)" d="M 57.6 245.088 
L 243.821017 245.088 
L 243.821017 242.568 
L 57.6 242.568 
z
" style="fill:#000080;"/>
   </g>
   <g id="patch_24">
    <path clip-path="url(#p3f0194f021)" d="M 57.6 242.568 
L 256.015432 242.568 
L 256.015432 240.048 
L 57.6 240.048 
z
" style="fill:#000080;"/>
   </g>
   <g id="patch_25">
    <path clip-path="url(#p3f0194f021)" d="M 57.6 240.048 
L 260.633806 240.048 
L 260.633806 237.528 
L 57.6 237.528 
z
" style="fill:#000080;"/>
   </g>
   <g id="patch_26">
    <path clip-path="url(#p3f0194f021)" d="M 57.6 237.528 
L 267.233397 237.528 
L 267.233397 235.008 
L 57.6 235.008 
z
" style="fill:#000080;"/>
   </g>
   <g id="patch_27">
    <path clip-path="url(#p3f0194f021)" d="M 57.6 235.008 
L 272.908633 235.008 
L 272.908633 232.488 
L 57.6 232.488 
z
" style="fill:#000080;"/>
   </g>
   <g id="patch_28">
    <path clip-path="url(#p3f0194f021)" d="M 57.6 232.488 
L 273.725808 232.488 
L 273.725808 229.968 
L 57.6 229.968 
z
" style="fill:#000080;"/>
   </g>
   <g id="patch_29">
    <path clip-path="url(#p3f0194f021)" d="M 57.6 229.968 
L 277.009414 229.968 
L 277.009414 227.448 
L 57.6 227.448 
z
" style="fill:#000080;"/>
   </g>
   <g id="patch_30">
    <path clip-path="url(#p3f0194f021)" d="M 57.6 227.448 
L 290.541931 227.448 
L 290.541931 224.928 
L 57.6 224.928 
z
" style="fill:#000080;"/>
   </g>
   <g id="patch_31">
    <path clip-path="url(#p3f0194f021)" d="M 57.6 224.928 
L 291.556651 224.928 
L 291.556651 222.408 
L 57.6 222.408 
z
" style="fill:#000080;"/>
   </g>
   <g id="patch_32">
    <path clip-path="url(#p3f0194f021)" d="M 57.6 222.408 
L 292.943978 222.408 
L 292.943978 219.888 
L 57.6 219.888 
z
" style="fill:#000080;"/>
   </g>
   <g id="patch_33">
    <path clip-path="url(#p3f0194f021)" d="M 57.6 219.888 
L 295.771708 219.888 
L 295.771708 217.368 
L 57.6 217.368 
z
" style="fill:#000080;"/>
   </g>
   <g id="patch_34">
    <path clip-path="url(#p3f0194f021)" d="M 57.6 217.368 
L 305.759201 217.368 
L 305.759201 214.848 
L 57.6 214.848 
z
" style="fill:#000080;"/>
   </g>
   <g id="patch_35">
    <path clip-path="url(#p3f0194f021)" d="M 57.6 214.848 
L 311.598258 214.848 
L 311.598258 212.328 
L 57.6 212.328 
z
" style="fill:#000080;"/>
   </g>
   <g id="patch_36">
    <path clip-path="url(#p3f0194f021)" d="M 57.6 212.328 
L 316.435482 212.328 
L 316.435482 209.808 
L 57.6 209.808 
z
" style="fill:#000080;"/>
   </g>
   <g id="patch_37">
    <path clip-path="url(#p3f0194f021)" d="M 57.6 209.808 
L 322.94944 209.808 
L 322.94944 207.288 
L 57.6 207.288 
z
" style="fill:#000080;"/>
   </g>
   <g id="patch_38">
    <path clip-path="url(#p3f0194f021)" d="M 57.6 207.288 
L 332.794931 207.288 
L 332.794931 204.768 
L 57.6 204.768 
z
" style="fill:#000080;"/>
   </g>
   <g id="patch_39">
    <path clip-path="url(#p3f0194f021)" d="M 57.6 204.768 
L 339.64839 204.768 
L 339.64839 202.248 
L 57.6 202.248 
z
" style="fill:#000080;"/>
   </g>
   <g id="patch_40">
    <path clip-path="url(#p3f0194f021)" d="M 57.6 202.248 
L 340.397586 202.248 
L 340.397586 199.728 
L 57.6 199.728 
z
" style="fill:#000080;"/>
   </g>
   <g id="patch_41">
    <path clip-path="url(#p3f0194f021)" d="M 57.6 199.728 
L 343.970056 199.728 
L 343.970056 197.208 
L 57.6 197.208 
z
" style="fill:#000080;"/>
   </g>
   <g id="patch_42">
    <path clip-path="url(#p3f0194f021)" d="M 57.6 197.208 
L 347.047952 197.208 
L 347.047952 194.688 
L 57.6 194.688 
z
" style="fill:#000080;"/>
   </g>
   <g id="patch_43">
    <path clip-path="url(#p3f0194f021)" d="M 57.6 194.688 
L 353.702788 194.688 
L 353.702788 192.168 
L 57.6 192.168 
z
" style="fill:#000080;"/>
   </g>
   <g id="patch_44">
    <path clip-path="url(#p3f0194f021)" d="M 57.6 192.168 
L 357.160217 192.168 
L 357.160217 189.648 
L 57.6 189.648 
z
" style="fill:#000080;"/>
   </g>
   <g id="patch_45">
    <path clip-path="url(#p3f0194f021)" d="M 57.6 189.648 
L 359.527296 189.648 
L 359.527296 187.128 
L 57.6 187.128 
z
" style="fill:#000080;"/>
   </g>
   <g id="patch_46">
    <path clip-path="url(#p3f0194f021)" d="M 57.6 187.128 
L 360.922322 187.128 
L 360.922322 184.608 
L 57.6 184.608 
z
" style="fill:#000080;"/>
   </g>
   <g id="patch_47">
    <path clip-path="url(#p3f0194f021)" d="M 57.6 184.608 
L 366.856979 184.608 
L 366.856979 182.088 
L 57.6 182.088 
z
" style="fill:#000080;"/>
   </g>
   <g id="patch_48">
    <path clip-path="url(#p3f0194f021)" d="M 57.6 182.088 
L 370.824132 182.088 
L 370.824132 179.568 
L 57.6 179.568 
z
" style="fill:#000080;"/>
   </g>
   <g id="patch_49">
    <path clip-path="url(#p3f0194f021)" d="M 57.6 179.568 
L 374.604465 179.568 
L 374.604465 177.048 
L 57.6 177.048 
z
" style="fill:#000080;"/>
   </g>
   <g id="patch_50">
    <path clip-path="url(#p3f0194f021)" d="M 57.6 177.048 
L 378.045437 177.048 
L 378.045437 174.528 
L 57.6 174.528 
z
" style="fill:#000080;"/>
   </g>
   <g id="patch_51">
    <path clip-path="url(#p3f0194f021)" d="M 57.6 174.528 
L 381.60253 174.528 
L 381.60253 172.008 
L 57.6 172.008 
z
" style="fill:#000080;"/>
   </g>
   <g id="patch_52">
    <path clip-path="url(#p3f0194f021)" d="M 57.6 172.008 
L 390.138054 172.008 
L 390.138054 169.488 
L 57.6 169.488 
z
" style="fill:#000080;"/>
   </g>
   <g id="patch_53">
    <path clip-path="url(#p3f0194f021)" d="M 57.6 169.488 
L 65.038447 169.488 
L 65.038447 166.968 
L 57.6 166.968 
z
" style="fill:#7dff7a;"/>
   </g>
   <g id="patch_54">
    <path clip-path="url(#p3f0194f021)" d="M 57.6 166.968 
L 88.019745 166.968 
L 88.019745 164.448 
L 57.6 164.448 
z
" style="fill:#7dff7a;"/>
   </g>
   <g id="patch_55">
    <path clip-path="url(#p3f0194f021)" d="M 57.6 164.448 
L 105.485785 164.448 
L 105.485785 161.928 
L 57.6 161.928 
z
" style="fill:#7dff7a;"/>
   </g>
   <g id="patch_56">
    <path clip-path="url(#p3f0194f021)" d="M 57.6 161.928 
L 128.943929 161.928 
L 128.943929 159.408 
L 57.6 159.408 
z
" style="fill:#7dff7a;"/>
   </g>
   <g id="patch_57">
    <path clip-path="url(#p3f0194f021)" d="M 57.6 159.408 
L 154.724894 159.408 
L 154.724894 156.888 
L 57.6 156.888 
z
" style="fill:#7dff7a;"/>
   </g>
   <g id="patch_58">
    <path clip-path="url(#p3f0194f021)" d="M 57.6 156.888 
L 167.511719 156.888 
L 167.511719 154.368 
L 57.6 154.368 
z
" style="fill:#7dff7a;"/>
   </g>
   <g id="patch_59">
    <path clip-path="url(#p3f0194f021)" d="M 57.6 154.368 
L 178.807708 154.368 
L 178.807708 151.848 
L 57.6 151.848 
z
" style="fill:#7dff7a;"/>
   </g>
   <g id="patch_60">
    <path clip-path="url(#p3f0194f021)" d="M 57.6 151.848 
L 202.098409 151.848 
L 202.098409 149.328 
L 57.6 149.328 
z
" style="fill:#7dff7a;"/>
   </g>
   <g id="patch_61">
    <path clip-path="url(#p3f0194f021)" d="M 57.6 149.328 
L 203.910655 149.328 
L 203.910655 146.808 
L 57.6 146.808 
z
" style="fill:#7dff7a;"/>
   </g>
   <g id="patch_62">
    <path clip-path="url(#p3f0194f021)" d="M 57.6 146.808 
L 207.36806 146.808 
L 207.36806 144.288 
L 57.6 144.288 
z
" style="fill:#7dff7a;"/>
   </g>
   <g id="patch_63">
    <path clip-path="url(#p3f0194f021)" d="M 57.6 144.288 
L 245.39665 144.288 
L 245.39665 141.768 
L 57.6 141.768 
z
" style="fill:#7dff7a;"/>
   </g>
   <g id="patch_64">
    <path clip-path="url(#p3f0194f021)" d="M 57.6 141.768 
L 247.879753 141.768 
L 247.879753 139.248 
L 57.6 139.248 
z
" style="fill:#7dff7a;"/>
   </g>
   <g id="patch_65">
    <path clip-path="url(#p3f0194f021)" d="M 57.6 139.248 
L 248.760963 139.248 
L 248.760963 136.728 
L 57.6 136.728 
z
" style="fill:#7dff7a;"/>
   </g>
   <g id="patch_66">
    <path clip-path="url(#p3f0194f021)" d="M 57.6 136.728 
L 249.193795 136.728 
L 249.193795 134.208 
L 57.6 134.208 
z
" style="fill:#7dff7a;"/>
   </g>
   <g id="patch_67">
    <path clip-path="url(#p3f0194f021)" d="M 57.6 134.208 
L 253.120358 134.208 
L 253.120358 131.688 
L 57.6 131.688 
z
" style="fill:#7dff7a;"/>
   </g>
   <g id="patch_68">
    <path clip-path="url(#p3f0194f021)" d="M 57.6 131.688 
L 253.494905 131.688 
L 253.494905 129.168 
L 57.6 129.168 
z
" style="fill:#7dff7a;"/>
   </g>
   <g id="patch_69">
    <path clip-path="url(#p3f0194f021)" d="M 57.6 129.168 
L 255.110423 129.168 
L 255.110423 126.648 
L 57.6 126.648 
z
" style="fill:#7dff7a;"/>
   </g>
   <g id="patch_70">
    <path clip-path="url(#p3f0194f021)" d="M 57.6 126.648 
L 255.884713 126.648 
L 255.884713 124.128 
L 57.6 124.128 
z
" style="fill:#7dff7a;"/>
   </g>
   <g id="patch_71">
    <path clip-path="url(#p3f0194f021)" d="M 57.6 124.128 
L 256.762951 124.128 
L 256.762951 121.608 
L 57.6 121.608 
z
" style="fill:#7dff7a;"/>
   </g>
   <g id="patch_72">
    <path clip-path="url(#p3f0194f021)" d="M 57.6 121.608 
L 267.859596 121.608 
L 267.859596 119.088 
L 57.6 119.088 
z
" style="fill:#7dff7a;"/>
   </g>
   <g id="patch_73">
    <path clip-path="url(#p3f0194f021)" d="M 57.6 119.088 
L 284.106484 119.088 
L 284.106484 116.568 
L 57.6 116.568 
z
" style="fill:#7dff7a;"/>
   </g>
   <g id="patch_74">
    <path clip-path="url(#p3f0194f021)" d="M 57.6 116.568 
L 305.107838 116.568 
L 305.107838 114.048 
L 57.6 114.048 
z
" style="fill:#7dff7a;"/>
   </g>
   <g id="patch_75">
    <path clip-path="url(#p3f0194f021)" d="M 57.6 114.048 
L 306.884517 114.048 
L 306.884517 111.528 
L 57.6 111.528 
z
" style="fill:#7dff7a;"/>
   </g>
   <g id="patch_76">
    <path clip-path="url(#p3f0194f021)" d="M 57.6 111.528 
L 307.364382 111.528 
L 307.364382 109.008 
L 57.6 109.008 
z
" style="fill:#7dff7a;"/>
   </g>
   <g id="patch_77">
    <path clip-path="url(#p3f0194f021)" d="M 57.6 109.008 
L 309.842219 109.008 
L 309.842219 106.488 
L 57.6 106.488 
z
" style="fill:#7dff7a;"/>
   </g>
   <g id="patch_78">
    <path clip-path="url(#p3f0194f021)" d="M 57.6 106.488 
L 310.048402 106.488 
L 310.048402 103.968 
L 57.6 103.968 
z
" style="fill:#7dff7a;"/>
   </g>
   <g id="patch_79">
    <path clip-path="url(#p3f0194f021)" d="M 57.6 103.968 
L 311.32313 103.968 
L 311.32313 101.448 
L 57.6 101.448 
z
" style="fill:#7dff7a;"/>
   </g>
   <g id="patch_80">
    <path clip-path="url(#p3f0194f021)" d="M 57.6 101.448 
L 315.009082 101.448 
L 315.009082 98.928 
L 57.6 98.928 
z
" style="fill:#7dff7a;"/>
   </g>
   <g id="patch_81">
    <path clip-path="url(#p3f0194f021)" d="M 57.6 98.928 
L 320.476412 98.928 
L 320.476412 96.408 
L 57.6 96.408 
z
" style="fill:#7dff7a;"/>
   </g>
   <g id="patch_82">
    <path clip-path="url(#p3f0194f021)" d="M 57.6 96.408 
L 320.652367 96.408 
L 320.652367 93.888 
L 57.6 93.888 
z
" style="fill:#7dff7a;"/>
   </g>
   <g id="patch_83">
    <path clip-path="url(#p3f0194f021)" d="M 57.6 93.888 
L 327.990084 93.888 
L 327.990084 91.368 
L 57.6 91.368 
z
" style="fill:#7dff7a;"/>
   </g>
   <g id="patch_84">
    <path clip-path="url(#p3f0194f021)" d="M 57.6 91.368 
L 330.865045 91.368 
L 330.865045 88.848 
L 57.6 88.848 
z
" style="fill:#7dff7a;"/>
   </g>
   <g id="patch_85">
    <path clip-path="url(#p3f0194f021)" d="M 57.6 88.848 
L 332.969096 88.848 
L 332.969096 86.328 
L 57.6 86.328 
z
" style="fill:#7dff7a;"/>
   </g>
   <g id="patch_86">
    <path clip-path="url(#p3f0194f021)" d="M 57.6 86.328 
L 339.386267 86.328 
L 339.386267 83.808 
L 57.6 83.808 
z
" style="fill:#7dff7a;"/>
   </g>
   <g id="patch_87">
    <path clip-path="url(#p3f0194f021)" d="M 57.6 83.808 
L 348.083187 83.808 
L 348.083187 81.288 
L 57.6 81.288 
z
" style="fill:#7dff7a;"/>
   </g>
   <g id="patch_88">
    <path clip-path="url(#p3f0194f021)" d="M 57.6 81.288 
L 355.062446 81.288 
L 355.062446 78.768 
L 57.6 78.768 
z
" style="fill:#7dff7a;"/>
   </g>
   <g id="patch_89">
    <path clip-path="url(#p3f0194f021)" d="M 57.6 78.768 
L 355.999989 78.768 
L 355.999989 76.248 
L 57.6 76.248 
z
" style="fill:#7dff7a;"/>
   </g>
   <g id="patch_90">
    <path clip-path="url(#p3f0194f021)" d="M 57.6 76.248 
L 358.487381 76.248 
L 358.487381 73.728 
L 57.6 73.728 
z
" style="fill:#7dff7a;"/>
   </g>
   <g id="patch_91">
    <path clip-path="url(#p3f0194f021)" d="M 57.6 73.728 
L 361.292573 73.728 
L 361.292573 71.208 
L 57.6 71.208 
z
" style="fill:#7dff7a;"/>
   </g>
   <g id="patch_92">
    <path clip-path="url(#p3f0194f021)" d="M 57.6 71.208 
L 363.048185 71.208 
L 363.048185 68.688 
L 57.6 68.688 
z
" style="fill:#7dff7a;"/>
   </g>
   <g id="patch_93">
    <path clip-path="url(#p3f0194f021)" d="M 57.6 68.688 
L 367.481997 68.688 
L 367.481997 66.168 
L 57.6 66.168 
z
" style="fill:#7dff7a;"/>
   </g>
   <g id="patch_94">
    <path clip-path="url(#p3f0194f021)" d="M 57.6 66.168 
L 369.642721 66.168 
L 369.642721 63.648 
L 57.6 63.648 
z
" style="fill:#7dff7a;"/>
   </g>
   <g id="patch_95">
    <path clip-path="url(#p3f0194f021)" d="M 57.6 63.648 
L 370.402428 63.648 
L 370.402428 61.128 
L 57.6 61.128 
z
" style="fill:#7dff7a;"/>
   </g>
   <g id="patch_96">
    <path clip-path="url(#p3f0194f021)" d="M 57.6 61.128 
L 381.867091 61.128 
L 381.867091 58.608 
L 57.6 58.608 
z
" style="fill:#7dff7a;"/>
   </g>
   <g id="patch_97">
    <path clip-path="url(#p3f0194f021)" d="M 57.6 58.608 
L 387.447044 58.608 
L 387.447044 56.088 
L 57.6 56.088 
z
" style="fill:#7dff7a;"/>
   </g>
   <g id="patch_98">
    <path clip-path="url(#p3f0194f021)" d="M 57.6 56.088 
L 397.714286 56.088 
L 397.714286 53.568 
L 57.6 53.568 
z
" style="fill:#7dff7a;"/>
   </g>
   <g id="matplotlib.axis_1">
    <g id="xtick_1">
     <g id="line2d_1">
      <path clip-path="url(#p3f0194f021)" d="M 57.6 307.584 
L 57.6 41.472 
" style="fill:none;stroke:#b0b0b0;stroke-linecap:square;stroke-width:0.8;"/>
     </g>
     <g id="line2d_2">
      <defs>
       <path d="M 0 0 
L 0 3.5 
" id="m0e4649204e" style="stroke:#000000;stroke-width:0.8;"/>
      </defs>
      <g>
       <use style="stroke:#000000;stroke-width:0.8;" x="57.6" xlink:href="#m0e4649204e" y="307.584"/>
      </g>
     </g>
     <g id="text_1">
      <!-- 0.0 -->
      <g transform="translate(49.648438 322.182437)scale(0.1 -0.1)">
       <defs>
        <path d="M 2034 4250 
Q 1547 4250 1301 3770 
Q 1056 3291 1056 2328 
Q 1056 1369 1301 889 
Q 1547 409 2034 409 
Q 2525 409 2770 889 
Q 3016 1369 3016 2328 
Q 3016 3291 2770 3770 
Q 2525 4250 2034 4250 
z
M 2034 4750 
Q 2819 4750 3233 4129 
Q 3647 3509 3647 2328 
Q 3647 1150 3233 529 
Q 2819 -91 2034 -91 
Q 1250 -91 836 529 
Q 422 1150 422 2328 
Q 422 3509 836 4129 
Q 1250 4750 2034 4750 
z
" id="DejaVuSans-30" transform="scale(0.015625)"/>
        <path d="M 684 794 
L 1344 794 
L 1344 0 
L 684 0 
L 684 794 
z
" id="DejaVuSans-2e" transform="scale(0.015625)"/>
       </defs>
       <use xlink:href="#DejaVuSans-30"/>
       <use x="63.623047" xlink:href="#DejaVuSans-2e"/>
       <use x="95.410156" xlink:href="#DejaVuSans-30"/>
      </g>
     </g>
    </g>
    <g id="xtick_2">
     <g id="line2d_3">
      <path clip-path="url(#p3f0194f021)" d="M 133.353393 307.584 
L 133.353393 41.472 
" style="fill:none;stroke:#b0b0b0;stroke-linecap:square;stroke-width:0.8;"/>
     </g>
     <g id="line2d_4">
      <g>
       <use style="stroke:#000000;stroke-width:0.8;" x="133.353393" xlink:href="#m0e4649204e" y="307.584"/>
      </g>
     </g>
     <g id="text_2">
      <!-- 0.1 -->
      <g transform="translate(125.40183 322.182437)scale(0.1 -0.1)">
       <defs>
        <path d="M 794 531 
L 1825 531 
L 1825 4091 
L 703 3866 
L 703 4441 
L 1819 4666 
L 2450 4666 
L 2450 531 
L 3481 531 
L 3481 0 
L 794 0 
L 794 531 
z
" id="DejaVuSans-31" transform="scale(0.015625)"/>
       </defs>
       <use xlink:href="#DejaVuSans-30"/>
       <use x="63.623047" xlink:href="#DejaVuSans-2e"/>
       <use x="95.410156" xlink:href="#DejaVuSans-31"/>
      </g>
     </g>
    </g>
    <g id="xtick_3">
     <g id="line2d_5">
      <path clip-path="url(#p3f0194f021)" d="M 209.106785 307.584 
L 209.106785 41.472 
" style="fill:none;stroke:#b0b0b0;stroke-linecap:square;stroke-width:0.8;"/>
     </g>
     <g id="line2d_6">
      <g>
       <use style="stroke:#000000;stroke-width:0.8;" x="209.106785" xlink:href="#m0e4649204e" y="307.584"/>
      </g>
     </g>
     <g id="text_3">
      <!-- 0.2 -->
      <g transform="translate(201.155223 322.182437)scale(0.1 -0.1)">
       <defs>
        <path d="M 1228 531 
L 3431 531 
L 3431 0 
L 469 0 
L 469 531 
Q 828 903 1448 1529 
Q 2069 2156 2228 2338 
Q 2531 2678 2651 2914 
Q 2772 3150 2772 3378 
Q 2772 3750 2511 3984 
Q 2250 4219 1831 4219 
Q 1534 4219 1204 4116 
Q 875 4013 500 3803 
L 500 4441 
Q 881 4594 1212 4672 
Q 1544 4750 1819 4750 
Q 2544 4750 2975 4387 
Q 3406 4025 3406 3419 
Q 3406 3131 3298 2873 
Q 3191 2616 2906 2266 
Q 2828 2175 2409 1742 
Q 1991 1309 1228 531 
z
" id="DejaVuSans-32" transform="scale(0.015625)"/>
       </defs>
       <use xlink:href="#DejaVuSans-30"/>
       <use x="63.623047" xlink:href="#DejaVuSans-2e"/>
       <use x="95.410156" xlink:href="#DejaVuSans-32"/>
      </g>
     </g>
    </g>
    <g id="xtick_4">
     <g id="line2d_7">
      <path clip-path="url(#p3f0194f021)" d="M 284.860178 307.584 
L 284.860178 41.472 
" style="fill:none;stroke:#b0b0b0;stroke-linecap:square;stroke-width:0.8;"/>
     </g>
     <g id="line2d_8">
      <g>
       <use style="stroke:#000000;stroke-width:0.8;" x="284.860178" xlink:href="#m0e4649204e" y="307.584"/>
      </g>
     </g>
     <g id="text_4">
      <!-- 0.3 -->
      <g transform="translate(276.908615 322.182437)scale(0.1 -0.1)">
       <defs>
        <path d="M 2597 2516 
Q 3050 2419 3304 2112 
Q 3559 1806 3559 1356 
Q 3559 666 3084 287 
Q 2609 -91 1734 -91 
Q 1441 -91 1130 -33 
Q 819 25 488 141 
L 488 750 
Q 750 597 1062 519 
Q 1375 441 1716 441 
Q 2309 441 2620 675 
Q 2931 909 2931 1356 
Q 2931 1769 2642 2001 
Q 2353 2234 1838 2234 
L 1294 2234 
L 1294 2753 
L 1863 2753 
Q 2328 2753 2575 2939 
Q 2822 3125 2822 3475 
Q 2822 3834 2567 4026 
Q 2313 4219 1838 4219 
Q 1578 4219 1281 4162 
Q 984 4106 628 3988 
L 628 4550 
Q 988 4650 1302 4700 
Q 1616 4750 1894 4750 
Q 2613 4750 3031 4423 
Q 3450 4097 3450 3541 
Q 3450 3153 3228 2886 
Q 3006 2619 2597 2516 
z
" id="DejaVuSans-33" transform="scale(0.015625)"/>
       </defs>
       <use xlink:href="#DejaVuSans-30"/>
       <use x="63.623047" xlink:href="#DejaVuSans-2e"/>
       <use x="95.410156" xlink:href="#DejaVuSans-33"/>
      </g>
     </g>
    </g>
    <g id="xtick_5">
     <g id="line2d_9">
      <path clip-path="url(#p3f0194f021)" d="M 360.61357 307.584 
L 360.61357 41.472 
" style="fill:none;stroke:#b0b0b0;stroke-linecap:square;stroke-width:0.8;"/>
     </g>
     <g id="line2d_10">
      <g>
       <use style="stroke:#000000;stroke-width:0.8;" x="360.61357" xlink:href="#m0e4649204e" y="307.584"/>
      </g>
     </g>
     <g id="text_5">
      <!-- 0.4 -->
      <g transform="translate(352.662008 322.182437)scale(0.1 -0.1)">
       <defs>
        <path d="M 2419 4116 
L 825 1625 
L 2419 1625 
L 2419 4116 
z
M 2253 4666 
L 3047 4666 
L 3047 1625 
L 3713 1625 
L 3713 1100 
L 3047 1100 
L 3047 0 
L 2419 0 
L 2419 1100 
L 313 1100 
L 313 1709 
L 2253 4666 
z
" id="DejaVuSans-34" transform="scale(0.015625)"/>
       </defs>
       <use xlink:href="#DejaVuSans-30"/>
       <use x="63.623047" xlink:href="#DejaVuSans-2e"/>
       <use x="95.410156" xlink:href="#DejaVuSans-34"/>
      </g>
     </g>
    </g>
    <g id="text_6">
     <!-- Coeficientes de silueta -->
     <g transform="translate(179.277187 335.860562)scale(0.1 -0.1)">
      <defs>
       <path d="M 4122 4306 
L 4122 3641 
Q 3803 3938 3442 4084 
Q 3081 4231 2675 4231 
Q 1875 4231 1450 3742 
Q 1025 3253 1025 2328 
Q 1025 1406 1450 917 
Q 1875 428 2675 428 
Q 3081 428 3442 575 
Q 3803 722 4122 1019 
L 4122 359 
Q 3791 134 3420 21 
Q 3050 -91 2638 -91 
Q 1578 -91 968 557 
Q 359 1206 359 2328 
Q 359 3453 968 4101 
Q 1578 4750 2638 4750 
Q 3056 4750 3426 4639 
Q 3797 4528 4122 4306 
z
" id="DejaVuSans-43" transform="scale(0.015625)"/>
       <path d="M 1959 3097 
Q 1497 3097 1228 2736 
Q 959 2375 959 1747 
Q 959 1119 1226 758 
Q 1494 397 1959 397 
Q 2419 397 2687 759 
Q 2956 1122 2956 1747 
Q 2956 2369 2687 2733 
Q 2419 3097 1959 3097 
z
M 1959 3584 
Q 2709 3584 3137 3096 
Q 3566 2609 3566 1747 
Q 3566 888 3137 398 
Q 2709 -91 1959 -91 
Q 1206 -91 779 398 
Q 353 888 353 1747 
Q 353 2609 779 3096 
Q 1206 3584 1959 3584 
z
" id="DejaVuSans-6f" transform="scale(0.015625)"/>
       <path d="M 3597 1894 
L 3597 1613 
L 953 1613 
Q 991 1019 1311 708 
Q 1631 397 2203 397 
Q 2534 397 2845 478 
Q 3156 559 3463 722 
L 3463 178 
Q 3153 47 2828 -22 
Q 2503 -91 2169 -91 
Q 1331 -91 842 396 
Q 353 884 353 1716 
Q 353 2575 817 3079 
Q 1281 3584 2069 3584 
Q 2775 3584 3186 3129 
Q 3597 2675 3597 1894 
z
M 3022 2063 
Q 3016 2534 2758 2815 
Q 2500 3097 2075 3097 
Q 1594 3097 1305 2825 
Q 1016 2553 972 2059 
L 3022 2063 
z
" id="DejaVuSans-65" transform="scale(0.015625)"/>
       <path d="M 2375 4863 
L 2375 4384 
L 1825 4384 
Q 1516 4384 1395 4259 
Q 1275 4134 1275 3809 
L 1275 3500 
L 2222 3500 
L 2222 3053 
L 1275 3053 
L 1275 0 
L 697 0 
L 697 3053 
L 147 3053 
L 147 3500 
L 697 3500 
L 697 3744 
Q 697 4328 969 4595 
Q 1241 4863 1831 4863 
L 2375 4863 
z
" id="DejaVuSans-66" transform="scale(0.015625)"/>
       <path d="M 603 3500 
L 1178 3500 
L 1178 0 
L 603 0 
L 603 3500 
z
M 603 4863 
L 1178 4863 
L 1178 4134 
L 603 4134 
L 603 4863 
z
" id="DejaVuSans-69" transform="scale(0.015625)"/>
       <path d="M 3122 3366 
L 3122 2828 
Q 2878 2963 2633 3030 
Q 2388 3097 2138 3097 
Q 1578 3097 1268 2742 
Q 959 2388 959 1747 
Q 959 1106 1268 751 
Q 1578 397 2138 397 
Q 2388 397 2633 464 
Q 2878 531 3122 666 
L 3122 134 
Q 2881 22 2623 -34 
Q 2366 -91 2075 -91 
Q 1284 -91 818 406 
Q 353 903 353 1747 
Q 353 2603 823 3093 
Q 1294 3584 2113 3584 
Q 2378 3584 2631 3529 
Q 2884 3475 3122 3366 
z
" id="DejaVuSans-63" transform="scale(0.015625)"/>
       <path d="M 3513 2113 
L 3513 0 
L 2938 0 
L 2938 2094 
Q 2938 2591 2744 2837 
Q 2550 3084 2163 3084 
Q 1697 3084 1428 2787 
Q 1159 2491 1159 1978 
L 1159 0 
L 581 0 
L 581 3500 
L 1159 3500 
L 1159 2956 
Q 1366 3272 1645 3428 
Q 1925 3584 2291 3584 
Q 2894 3584 3203 3211 
Q 3513 2838 3513 2113 
z
" id="DejaVuSans-6e" transform="scale(0.015625)"/>
       <path d="M 1172 4494 
L 1172 3500 
L 2356 3500 
L 2356 3053 
L 1172 3053 
L 1172 1153 
Q 1172 725 1289 603 
Q 1406 481 1766 481 
L 2356 481 
L 2356 0 
L 1766 0 
Q 1100 0 847 248 
Q 594 497 594 1153 
L 594 3053 
L 172 3053 
L 172 3500 
L 594 3500 
L 594 4494 
L 1172 4494 
z
" id="DejaVuSans-74" transform="scale(0.015625)"/>
       <path d="M 2834 3397 
L 2834 2853 
Q 2591 2978 2328 3040 
Q 2066 3103 1784 3103 
Q 1356 3103 1142 2972 
Q 928 2841 928 2578 
Q 928 2378 1081 2264 
Q 1234 2150 1697 2047 
L 1894 2003 
Q 2506 1872 2764 1633 
Q 3022 1394 3022 966 
Q 3022 478 2636 193 
Q 2250 -91 1575 -91 
Q 1294 -91 989 -36 
Q 684 19 347 128 
L 347 722 
Q 666 556 975 473 
Q 1284 391 1588 391 
Q 1994 391 2212 530 
Q 2431 669 2431 922 
Q 2431 1156 2273 1281 
Q 2116 1406 1581 1522 
L 1381 1569 
Q 847 1681 609 1914 
Q 372 2147 372 2553 
Q 372 3047 722 3315 
Q 1072 3584 1716 3584 
Q 2034 3584 2315 3537 
Q 2597 3491 2834 3397 
z
" id="DejaVuSans-73" transform="scale(0.015625)"/>
       <path id="DejaVuSans-20" transform="scale(0.015625)"/>
       <path d="M 2906 2969 
L 2906 4863 
L 3481 4863 
L 3481 0 
L 2906 0 
L 2906 525 
Q 2725 213 2448 61 
Q 2172 -91 1784 -91 
Q 1150 -91 751 415 
Q 353 922 353 1747 
Q 353 2572 751 3078 
Q 1150 3584 1784 3584 
Q 2172 3584 2448 3432 
Q 2725 3281 2906 2969 
z
M 947 1747 
Q 947 1113 1208 752 
Q 1469 391 1925 391 
Q 2381 391 2643 752 
Q 2906 1113 2906 1747 
Q 2906 2381 2643 2742 
Q 2381 3103 1925 3103 
Q 1469 3103 1208 2742 
Q 947 2381 947 1747 
z
" id="DejaVuSans-64" transform="scale(0.015625)"/>
       <path d="M 603 4863 
L 1178 4863 
L 1178 0 
L 603 0 
L 603 4863 
z
" id="DejaVuSans-6c" transform="scale(0.015625)"/>
       <path d="M 544 1381 
L 544 3500 
L 1119 3500 
L 1119 1403 
Q 1119 906 1312 657 
Q 1506 409 1894 409 
Q 2359 409 2629 706 
Q 2900 1003 2900 1516 
L 2900 3500 
L 3475 3500 
L 3475 0 
L 2900 0 
L 2900 538 
Q 2691 219 2414 64 
Q 2138 -91 1772 -91 
Q 1169 -91 856 284 
Q 544 659 544 1381 
z
M 1991 3584 
L 1991 3584 
z
" id="DejaVuSans-75" transform="scale(0.015625)"/>
       <path d="M 2194 1759 
Q 1497 1759 1228 1600 
Q 959 1441 959 1056 
Q 959 750 1161 570 
Q 1363 391 1709 391 
Q 2188 391 2477 730 
Q 2766 1069 2766 1631 
L 2766 1759 
L 2194 1759 
z
M 3341 1997 
L 3341 0 
L 2766 0 
L 2766 531 
Q 2569 213 2275 61 
Q 1981 -91 1556 -91 
Q 1019 -91 701 211 
Q 384 513 384 1019 
Q 384 1609 779 1909 
Q 1175 2209 1959 2209 
L 2766 2209 
L 2766 2266 
Q 2766 2663 2505 2880 
Q 2244 3097 1772 3097 
Q 1472 3097 1187 3025 
Q 903 2953 641 2809 
L 641 3341 
Q 956 3463 1253 3523 
Q 1550 3584 1831 3584 
Q 2591 3584 2966 3190 
Q 3341 2797 3341 1997 
z
" id="DejaVuSans-61" transform="scale(0.015625)"/>
      </defs>
      <use xlink:href="#DejaVuSans-43"/>
      <use x="69.824219" xlink:href="#DejaVuSans-6f"/>
      <use x="131.005859" xlink:href="#DejaVuSans-65"/>
      <use x="192.529297" xlink:href="#DejaVuSans-66"/>
      <use x="227.734375" xlink:href="#DejaVuSans-69"/>
      <use x="255.517578" xlink:href="#DejaVuSans-63"/>
      <use x="310.498047" xlink:href="#DejaVuSans-69"/>
      <use x="338.28125" xlink:href="#DejaVuSans-65"/>
      <use x="399.804688" xlink:href="#DejaVuSans-6e"/>
      <use x="463.183594" xlink:href="#DejaVuSans-74"/>
      <use x="502.392578" xlink:href="#DejaVuSans-65"/>
      <use x="563.916016" xlink:href="#DejaVuSans-73"/>
      <use x="616.015625" xlink:href="#DejaVuSans-20"/>
      <use x="647.802734" xlink:href="#DejaVuSans-64"/>
      <use x="711.279297" xlink:href="#DejaVuSans-65"/>
      <use x="772.802734" xlink:href="#DejaVuSans-20"/>
      <use x="804.589844" xlink:href="#DejaVuSans-73"/>
      <use x="856.689453" xlink:href="#DejaVuSans-69"/>
      <use x="884.472656" xlink:href="#DejaVuSans-6c"/>
      <use x="912.255859" xlink:href="#DejaVuSans-75"/>
      <use x="975.634766" xlink:href="#DejaVuSans-65"/>
      <use x="1037.158203" xlink:href="#DejaVuSans-74"/>
      <use x="1076.367188" xlink:href="#DejaVuSans-61"/>
     </g>
    </g>
   </g>
   <g id="matplotlib.axis_2">
    <g id="ytick_1">
     <g id="line2d_11">
      <path clip-path="url(#p3f0194f021)" d="M 57.6 231.228 
L 414.72 231.228 
" style="fill:none;stroke:#b0b0b0;stroke-linecap:square;stroke-width:0.8;"/>
     </g>
     <g id="line2d_12">
      <defs>
       <path d="M 0 0 
L -3.5 0 
" id="m2188abcd0a" style="stroke:#000000;stroke-width:0.8;"/>
      </defs>
      <g>
       <use style="stroke:#000000;stroke-width:0.8;" x="57.6" xlink:href="#m2188abcd0a" y="231.228"/>
      </g>
     </g>
     <g id="text_7">
      <!-- 1.0 -->
      <g transform="translate(34.696875 235.027219)scale(0.1 -0.1)">
       <use xlink:href="#DejaVuSans-31"/>
       <use x="63.623047" xlink:href="#DejaVuSans-2e"/>
       <use x="95.410156" xlink:href="#DejaVuSans-30"/>
      </g>
     </g>
    </g>
    <g id="ytick_2">
     <g id="line2d_13">
      <path clip-path="url(#p3f0194f021)" d="M 57.6 110.268 
L 414.72 110.268 
" style="fill:none;stroke:#b0b0b0;stroke-linecap:square;stroke-width:0.8;"/>
     </g>
     <g id="line2d_14">
      <g>
       <use style="stroke:#000000;stroke-width:0.8;" x="57.6" xlink:href="#m2188abcd0a" y="110.268"/>
      </g>
     </g>
     <g id="text_8">
      <!-- 2.0 -->
      <g transform="translate(34.696875 114.067219)scale(0.1 -0.1)">
       <use xlink:href="#DejaVuSans-32"/>
       <use x="63.623047" xlink:href="#DejaVuSans-2e"/>
       <use x="95.410156" xlink:href="#DejaVuSans-30"/>
      </g>
     </g>
    </g>
    <g id="text_9">
     <!-- Cluster -->
     <g transform="translate(28.617187 192.274094)rotate(-90)scale(0.1 -0.1)">
      <defs>
       <path d="M 2631 2963 
Q 2534 3019 2420 3045 
Q 2306 3072 2169 3072 
Q 1681 3072 1420 2755 
Q 1159 2438 1159 1844 
L 1159 0 
L 581 0 
L 581 3500 
L 1159 3500 
L 1159 2956 
Q 1341 3275 1631 3429 
Q 1922 3584 2338 3584 
Q 2397 3584 2469 3576 
Q 2541 3569 2628 3553 
L 2631 2963 
z
" id="DejaVuSans-72" transform="scale(0.015625)"/>
      </defs>
      <use xlink:href="#DejaVuSans-43"/>
      <use x="69.824219" xlink:href="#DejaVuSans-6c"/>
      <use x="97.607422" xlink:href="#DejaVuSans-75"/>
      <use x="160.986328" xlink:href="#DejaVuSans-73"/>
      <use x="213.085938" xlink:href="#DejaVuSans-74"/>
      <use x="252.294922" xlink:href="#DejaVuSans-65"/>
      <use x="313.818359" xlink:href="#DejaVuSans-72"/>
     </g>
    </g>
   </g>
   <g id="line2d_15">
    <path clip-path="url(#p3f0194f021)" d="M 271.996276 307.584 
L 271.996276 41.472 
" style="fill:none;stroke:#ff0000;stroke-dasharray:5.55,2.4;stroke-dashoffset:0;stroke-width:1.5;"/>
   </g>
   <g id="patch_99">
    <path d="M 57.6 307.584 
L 57.6 41.472 
" style="fill:none;stroke:#000000;stroke-linecap:square;stroke-linejoin:miter;stroke-width:0.8;"/>
   </g>
   <g id="patch_100">
    <path d="M 414.72 307.584 
L 414.72 41.472 
" style="fill:none;stroke:#000000;stroke-linecap:square;stroke-linejoin:miter;stroke-width:0.8;"/>
   </g>
   <g id="patch_101">
    <path d="M 57.6 307.584 
L 414.72 307.584 
" style="fill:none;stroke:#000000;stroke-linecap:square;stroke-linejoin:miter;stroke-width:0.8;"/>
   </g>
   <g id="patch_102">
    <path d="M 57.6 41.472 
L 414.72 41.472 
" style="fill:none;stroke:#000000;stroke-linecap:square;stroke-linejoin:miter;stroke-width:0.8;"/>
   </g>
  </g>
 </g>
 <defs>
  <clipPath id="p3f0194f021">
   <rect height="266.112" width="357.12" x="57.6" y="41.472"/>
  </clipPath>
 </defs>
</svg>
